<svg version="1.1" xmlns="http://www.w3.org/2000/svg" viewBox="0 0 190.56419048636235 185.53709268312704" width="190.56419048636235" height="185.53709268312704">
  <!-- svg-source:excalidraw -->
  
  <defs>
    <style class="style-fonts">
      
    </style>
    
  </defs>
  <g stroke-linecap="round" transform="translate(10 10) rotate(0 85.28209524318117 82.76854634156352)"><path d="M32 0 C57.29 3.8, 87.84 -1.97, 138.56 0 C161.26 -0.97, 172.37 10.16, 170.56 32 C174.18 54.65, 170.7 72.81, 170.56 133.54 C172.18 156.57, 160.78 162.91, 138.56 165.54 C97.1 163.19, 55.25 164.25, 32 165.54 C10.01 163.29, 0.53 158.34, 0 133.54 C-1.24 107.9, 1.44 77.68, 0 32 C0.98 7.47, 13.68 -1.5, 32 0" stroke="none" stroke-width="0" fill="#fa5252"></path><path d="M32 0 C75.34 0.14, 115.2 1.88, 138.56 0 M32 0 C59.76 -1.41, 87.51 -0.56, 138.56 0 M138.56 0 C160.87 -1.44, 170.92 9.83, 170.56 32 M138.56 0 C159.28 -1.02, 170.07 12.21, 170.56 32 M170.56 32 C169.79 62.43, 172.16 93.2, 170.56 133.54 M170.56 32 C170.13 65.38, 170.54 98.59, 170.56 133.54 M170.56 133.54 C169.93 155.81, 160.24 164.09, 138.56 165.54 M170.56 133.54 C172.36 157.05, 159.1 163.52, 138.56 165.54 M138.56 165.54 C112.23 167.44, 82.86 166.83, 32 165.54 M138.56 165.54 C114.37 166.24, 90.71 165.28, 32 165.54 M32 165.54 C9.64 164.36, 1.74 153.58, 0 133.54 M32 165.54 C12.14 165.34, 0.74 152.62, 0 133.54 M0 133.54 C-0.09 105.15, -0.53 76.34, 0 32 M0 133.54 C0.51 97.07, 0.63 61.46, 0 32 M0 32 C1.21 11.47, 10.98 -1.74, 32 0 M0 32 C2.26 11.03, 10.38 -0.36, 32 0" stroke="#e03131" stroke-width="2" fill="none"></path></g><g stroke-linecap="round"><g transform="translate(46.65715345593651 65.21582298827556) rotate(0 47.042770648039664 25.00271571596096)" fill-rule="evenodd"><path d="M-0.33 0.2 C0.22 9.87, -6.78 43.13, 1.74 56.59 C10.27 70.05, 35.89 80.29, 50.83 80.98 C65.77 81.68, 83.81 74.91, 91.4 60.78 C99 46.65, 104.31 11.68, 96.41 -3.81 C88.5 -19.3, 60.2 -32.96, 43.98 -32.18 C27.76 -31.4, 6.32 -4.31, -0.93 0.89" stroke="none" stroke-width="0" fill="#fff9db" fill-rule="evenodd"></path><path d="M-0.65 0.03 C-0.02 8.98, -5.49 40.8, 3.64 54.8 C12.76 68.81, 39.45 83.2, 54.09 84.05 C68.73 84.9, 84.74 74.45, 91.49 59.89 C98.25 45.34, 102.2 12.25, 94.62 -3.29 C87.04 -18.83, 61.83 -33.75, 46.03 -33.35 C30.23 -32.94, 7.62 -6.26, -0.18 -0.86 M1.21 -0.99 C1.78 8.67, -5.59 42.51, 3.19 56.39 C11.97 70.26, 39.18 81.55, 53.9 82.24 C68.61 82.94, 84.88 74.7, 91.47 60.53 C98.06 46.37, 101.35 13.13, 93.43 -2.72 C85.51 -18.57, 59.45 -35.18, 43.94 -34.56 C28.43 -33.94, 7.45 -4.46, 0.37 1" stroke="#ffd43b" stroke-width="2" fill="none"></path></g></g><mask></mask><g stroke-linecap="round"><g transform="translate(48.22123488005434 66.72347439794439) rotate(0 46.26602629082413 10.437050478691503)"><path d="M0.16 -0.33 C8.19 3.92, 33.76 26.11, 49.3 25.49 C64.84 24.87, 93.17 -3.96, 93.38 -4.05 C93.59 -4.15, 57.74 20.11, 50.54 24.92 M-1.22 -1.55 C6.58 2.33, 32.73 23.7, 48.44 23.52 C64.15 23.35, 92.67 -3, 93.06 -2.6 C93.45 -2.19, 57.59 21.32, 50.78 25.94" stroke="#ffd43b" stroke-width="2" fill="none"></path></g></g><mask></mask><g stroke-linecap="round"><g transform="translate(98.69902538938004 93.219900229165) rotate(0 0.7820355313110667 26.564140689779094)"><path d="M0.62 -0.77 C0.76 7.96, 0.69 51.74, 0.74 51.95 C0.78 52.17, 1.2 9.28, 0.88 0.53 M-0.52 1.45 C0.02 10.31, 2.83 53.37, 3.01 52.87 C3.2 52.38, 1.33 7.23, 0.58 -1.54" stroke="#ffd43b" stroke-width="2" fill="none"></path></g></g><mask></mask><g stroke-linecap="round"><g transform="translate(69.65894548378094 79.11728512762616) rotate(0 24.101298004883745 -19.651250276357047)"><path d="M1.07 -0.03 C9.35 -6.46, 41.07 -32.03, 48.76 -38.4 M0.18 -1.1 C8.43 -7.87, 39.87 -33.55, 48.1 -40.05" stroke="#ffd43b" stroke-width="2" fill="none"></path></g></g><mask></mask><g stroke-linecap="round"><g transform="translate(118.41394006911594 102.51276875956759) rotate(0 4.650942029921623 3.086005098126634)" fill-rule="evenodd"><path d="M-0.45 -0.74 C-2.21 -0.65, -6.57 -3.06, -8.58 -1.4 C-10.6 0.27, -15.57 5.02, -12.54 9.23 C-9.51 13.44, 4.35 26.33, 9.58 23.87 C14.82 21.42, 19.03 1.21, 18.86 -5.5 C18.7 -12.21, 11.54 -17.39, 8.6 -16.39 C5.66 -15.4, 2.67 -2.62, 1.22 0.47" stroke="none" stroke-width="0" fill="#e03131" fill-rule="evenodd"></path><path d="M0.63 -0.19 C-1.29 -0.46, -9.13 -4.32, -11.31 -2.7 C-13.49 -1.08, -16.2 5.54, -12.44 9.55 C-8.68 13.56, 5.88 23.83, 11.25 21.36 C16.61 18.89, 19.91 0.85, 19.76 -5.27 C19.62 -11.4, 13.84 -16.47, 10.39 -15.41 C6.94 -14.34, 0.89 -1.41, -0.92 1.13 M-0.51 -1.34 C-2.08 -1.86, -7.59 -6.5, -9.2 -4.45 C-10.81 -2.41, -13.71 6.45, -10.17 10.92 C-6.63 15.4, 6.75 25.13, 12.04 22.42 C17.32 19.71, 22.13 1.15, 21.54 -5.34 C20.95 -11.83, 12.23 -17.46, 8.51 -16.51 C4.8 -15.56, 0.95 -2.28, -0.75 0.37" stroke="transparent" stroke-width="2" fill="none"></path></g></g><mask></mask></svg>